<svg width="15" height="15" viewBox="0 0 15 15" fill="none" xmlns="http://www.w3.org/2000/svg">
<path d="M9.03682 3.4847C9.64354 3.60307 10.2011 3.8998 10.6382 4.33691C11.0754 4.77401 11.3721 5.33161 11.4905 5.93833L9.03682 3.4847ZM9.03682 1C10.2974 1.14004 11.4728 1.70452 12.3702 2.60077C13.2676 3.49702 13.8335 4.67176 13.9752 5.93212L9.03682 1ZM13.354 10.8891V12.7526C13.3547 12.9256 13.3192 13.0968 13.2499 13.2554C13.1806 13.4139 13.079 13.5562 12.9515 13.6731C12.824 13.7901 12.6735 13.8791 12.5096 13.9345C12.3458 13.9899 12.1721 14.0105 11.9998 13.995C10.0884 13.7873 8.25228 13.1341 6.63909 12.088C5.13823 11.1342 3.86576 9.86177 2.91205 8.36091C1.86225 6.74039 1.20894 4.89538 1.00504 2.97533C0.989519 2.80356 1.00993 2.63043 1.06499 2.46698C1.12004 2.30353 1.20852 2.15333 1.3248 2.02594C1.44108 1.89856 1.58261 1.79679 1.74038 1.7271C1.89815 1.65741 2.0687 1.62134 2.24118 1.62117H4.1047C4.40616 1.61821 4.69841 1.72496 4.92699 1.92153C5.15556 2.1181 5.30486 2.39109 5.34705 2.68959C5.4257 3.28596 5.57157 3.87152 5.78187 4.43509C5.86544 4.65742 5.88353 4.89906 5.83399 5.13135C5.78445 5.36365 5.66935 5.57688 5.50234 5.74577L4.71345 6.53466C5.59773 8.0898 6.88536 9.37743 8.44049 10.2617L9.22938 9.47281C9.39827 9.3058 9.6115 9.1907 9.8438 9.14116C10.0761 9.09162 10.3177 9.10971 10.5401 9.19328C11.1036 9.40358 11.6892 9.54945 12.2856 9.62811C12.5873 9.67067 12.8629 9.82266 13.0599 10.0552C13.2569 10.2877 13.3615 10.5844 13.354 10.8891Z" stroke="white" stroke-linecap="round" stroke-linejoin="round"/>
</svg>
