<svg width="45" height="57" viewBox="0 0 45 57" fill="none" xmlns="http://www.w3.org/2000/svg">
<path d="M22.0202 5.74219C21.7296 5.74219 21.4492 5.69788 21.1852 5.61572V9.5957H22.8552V5.61572C22.5912 5.69799 22.3108 5.74219 22.0202 5.74219Z" fill="#135693"/>
<path d="M22.0201 5.85363C23.6366 5.85363 24.947 4.54325 24.947 2.92682C24.947 1.31038 23.6366 0 22.0201 0C20.4037 0 19.0933 1.31038 19.0933 2.92682C19.0933 4.54325 20.4037 5.85363 22.0201 5.85363Z" fill="#6BC1DD"/>
<g opacity="0.15">
<path opacity="0.15" d="M21.5569 2.92682C21.5569 1.75063 22.251 0.736992 23.252 0.271752C22.8774 0.0977461 22.4603 0 22.0201 0C20.4037 0 19.0933 1.31044 19.0933 2.92682C19.0933 4.54319 20.4037 5.85352 22.0201 5.85352C22.4603 5.85352 22.8774 5.75577 23.252 5.58177C22.251 5.11664 21.5569 4.103 21.5569 2.92682Z" fill="#440075"/>
</g>
<path d="M40.6761 14.1637H38.9501V30.0856H40.6761C41.6222 30.0856 42.3964 29.3116 42.3964 28.3654V15.8839C42.3964 14.9379 41.6222 14.1637 40.6761 14.1637Z" fill="#9EA7AF"/>
<path d="M5.09045 14.1642H3.25064C2.30446 14.1642 1.5304 14.9384 1.5304 15.8844V28.3658C1.5304 29.3119 2.30446 30.086 3.25064 30.086H5.09033L5.09045 14.1642Z" fill="#9EA7AF"/>
<path d="M6.26353 50.9165H3.89936C3.09223 50.9165 2.34244 50.6713 1.72034 50.2512V55.8532C1.72034 56.484 2.23645 57.0001 2.86724 57.0001H6.26353V50.9165Z" fill="#C5CCD3"/>
<path d="M40.1411 50.9163H37.777V57H41.1733C41.8041 57 42.3202 56.4839 42.3202 55.8531V50.2512C41.698 50.671 40.9482 50.9163 40.1411 50.9163Z" fill="#C5CCD3"/>
<path opacity="0.15" d="M4.12881 55.8532V50.9164H3.89936C3.09223 50.9164 2.34244 50.6711 1.72034 50.2511V55.8531C1.72034 56.4839 2.23645 57 2.86724 57H5.27571C4.64493 57.0001 4.12881 56.484 4.12881 55.8532Z" fill="#440075"/>
<path d="M6.26354 42.149H3.89938C1.74585 42.149 0 43.8949 0 46.0484V47.1953C0 49.3489 1.74596 51.0946 3.89938 51.0946H6.26343L6.26354 42.149Z" fill="#E6E9ED"/>
<path d="M40.141 42.1477H37.7769V51.0934H40.141C42.2946 51.0934 44.0403 49.3475 44.0403 47.1941V46.0472C44.0403 43.8934 42.2945 42.1477 40.141 42.1477Z" fill="#E6E9ED"/>
<g opacity="0.15">
<path opacity="0.15" d="M2.75259 47.1941V46.0472C2.75259 43.8936 4.49843 42.1478 6.65196 42.1478H3.89938C1.74585 42.1478 0 43.8937 0 46.0472V47.1941C0 49.3476 1.74596 51.0934 3.89938 51.0934H6.65196C4.49832 51.0934 2.75259 49.3476 2.75259 47.1941Z" fill="#440075"/>
</g>
<path d="M25.8275 34.5173H18.2138V37.3624H25.8275V34.5173Z" fill="#9EA7AF"/>
<path opacity="0.15" d="M20.9882 34.5173H18.2138V37.3624H20.9882V34.5173Z" fill="#440075"/>
<path d="M30.9764 40.078V38.2272C30.9764 37.6832 30.5313 37.2382 29.9873 37.2382H13.7195C13.1754 37.2382 12.7303 37.6832 12.7303 38.2272V40.078H30.9764Z" fill="#C5CCD3"/>
<path opacity="0.15" d="M16.1605 40.078V38.2272C16.1605 37.6832 16.6056 37.2382 17.1497 37.2382H13.7195C13.1754 37.2382 12.7303 37.6832 12.7303 38.2272V40.078H16.1605Z" fill="#440075"/>
<path d="M36.1677 39.8829H7.87257C6.9264 39.8829 6.15222 40.6571 6.15222 41.6033V57.0002H37.8881V41.6033C37.8881 40.6571 37.114 39.8829 36.1677 39.8829Z" fill="#9EA7AF"/>
<g opacity="0.15">
<path opacity="0.15" d="M11.1575 39.8829H7.87257C6.9264 39.8829 6.15222 40.6571 6.15222 41.6033V57.0002H9.43718V41.6033C9.43718 40.6571 10.2114 39.8829 11.1575 39.8829Z" fill="#440075"/>
</g>
<path d="M39.0613 32.9293C39.0613 33.8755 38.2872 34.6495 37.3411 34.6495H6.69937C5.7533 34.6495 4.97913 33.8755 4.97913 32.9293V11.2046C4.97913 10.2584 5.7533 9.48438 6.69937 9.48438H37.3411C38.2872 9.48438 39.0613 10.2584 39.0613 11.2046V32.9293Z" fill="#C5CCD3"/>
<g opacity="0.15">
<path opacity="0.15" d="M8.25763 32.9293V11.2046C8.25763 10.2584 9.0318 9.48438 9.97798 9.48438H6.69937C5.7533 9.48438 4.97913 10.2584 4.97913 11.2046V32.9294C4.97913 33.8756 5.7533 34.6496 6.69937 34.6496H9.97798C9.0318 34.6495 8.25763 33.8755 8.25763 32.9293Z" fill="#440075"/>
</g>
<path d="M34.9903 22.0994C34.9903 25.3812 32.3299 28.0412 29.0482 28.0412H14.9921C11.7102 28.0412 9.04993 25.3811 9.04993 22.0994C9.04993 18.8177 11.7102 16.1576 14.9921 16.1576H29.0482C32.3299 16.1576 34.9903 18.8177 34.9903 22.0994Z" fill="#135693"/>
<g opacity="0.15">
<path opacity="0.15" d="M12.3863 22.0994C12.3863 18.8177 15.0466 16.1576 18.3285 16.1576H14.9921C11.7102 16.1576 9.04993 18.8178 9.04993 22.0994C9.04993 25.3812 11.7102 28.0412 14.9921 28.0412H18.3285C15.0466 28.0412 12.3863 25.3811 12.3863 22.0994Z" fill="#440075"/>
</g>
<path d="M14.3986 24.4199C15.6747 24.4199 16.7091 23.3814 16.7091 22.1003C16.7091 20.8192 15.6747 19.7806 14.3986 19.7806C13.1226 19.7806 12.0881 20.8192 12.0881 22.1003C12.0881 23.3814 13.1226 24.4199 14.3986 24.4199Z" fill="#6BC1DD"/>
<path d="M29.6861 24.4195C30.9622 24.4195 31.9966 23.381 31.9966 22.0999C31.9966 20.8188 30.9622 19.7803 29.6861 19.7803C28.4101 19.7803 27.3756 20.8188 27.3756 22.0999C27.3756 23.381 28.4101 24.4195 29.6861 24.4195Z" fill="#6BC1DD"/>
<path d="M32.2704 57V47.0016C32.2704 46.3709 31.7542 45.8547 31.1235 45.8547H12.9169C12.2861 45.8547 11.77 46.3709 11.77 47.0016V57H32.2704Z" fill="#135693"/>
<path d="M24.0845 57V53.7753C24.0845 53.586 23.9296 53.4312 23.7405 53.4312H20.2998C20.1106 53.4312 19.9557 53.586 19.9557 53.7753V57H24.0845Z" fill="#FFC502"/>
<path d="M17.2034 49.4443H14.5656C14.1044 49.4443 13.7307 49.0706 13.7307 48.6094C13.7307 48.1481 14.1044 47.7744 14.5656 47.7744H17.2034C17.6647 47.7744 18.0384 48.1481 18.0384 48.6094C18.0384 49.0705 17.6647 49.4443 17.2034 49.4443Z" fill="#C5CCD3"/>
<path d="M16.0563 51.4825H14.5653C14.1041 51.4825 13.7303 51.1088 13.7303 50.6476C13.7303 50.1864 14.1041 49.8126 14.5653 49.8126H16.0563C16.5176 49.8126 16.8913 50.1864 16.8913 50.6476C16.8913 51.1088 16.5174 51.4825 16.0563 51.4825Z" fill="#C5CCD3"/>
<path d="M17.2031 53.5214H14.5653C14.1041 53.5214 13.7303 53.1475 13.7303 52.6864C13.7303 52.2252 14.1041 51.8514 14.5653 51.8514H17.2031C17.6643 51.8514 18.0381 52.2252 18.0381 52.6864C18.0381 53.1476 17.6643 53.5214 17.2031 53.5214Z" fill="#C5CCD3"/>
<path d="M15.7122 55.5594H14.5653C14.1041 55.5594 13.7303 55.1857 13.7303 54.7245C13.7303 54.2634 14.1041 53.8895 14.5653 53.8895H15.7122C16.1734 53.8895 16.5472 54.2634 16.5472 54.7245C16.5472 55.1857 16.1733 55.5594 15.7122 55.5594Z" fill="#C5CCD3"/>
<path d="M29.0962 54.7209H27.0603C26.5772 54.7209 26.1858 54.3293 26.1858 53.8462C26.1858 53.363 26.5773 52.9716 27.0603 52.9716H29.0962C29.5793 52.9716 29.9709 53.3631 29.9709 53.8462C29.9709 54.3294 29.5793 54.7209 29.0962 54.7209Z" fill="#E6E9ED"/>
<path d="M28.0786 51.6897C29.0931 51.6897 29.9155 50.8673 29.9155 49.8528C29.9155 48.8383 29.0931 48.0159 28.0786 48.0159C27.0641 48.0159 26.2416 48.8383 26.2416 49.8528C26.2416 50.8673 27.0641 51.6897 28.0786 51.6897Z" fill="#5DC647"/>
<path d="M24.1354 50.8132C24.1354 51.0072 23.9768 51.1657 23.783 51.1657H20.2574C20.0636 51.1657 19.905 51.0072 19.905 50.8132V48.8913C19.905 48.6973 20.0636 48.5387 20.2574 48.5387H23.783C23.9768 48.5387 24.1354 48.6973 24.1354 48.8913V50.8132Z" fill="#6BC1DD"/>
</svg>
